<svg data-name="Group 2072" xmlns="http://www.w3.org/2000/svg" width="16" height="16">
    <path data-name="Rectangle 2142" style="fill:none" d="M0 0h16v16H0z"/>
    <g data-name="Group 1714">
        <path data-name="Path 1066" d="M.023 13.085a.3.3 0 0 0 .279.186c11.706 0 12.97-4.851 12.97-6.937a4.463 4.463 0 0 0-.5-2.083.3.3 0 0 0-.261-.162.32.32 0 0 0-.268.151 16.759 16.759 0 0 1-6.724 6.528.3.3 0 1 1-.264-.542c.279-.135.547-.282.809-.435.1-.059.2-.121.3-.182a16.368 16.368 0 0 0 .855-.575c.043-.031.084-.063.126-.1C11.023 6.2 13.271 1.824 13.271.3a.3.3 0 1 0-.6 0 7.13 7.13 0 0 1-.958 2.648A5.533 5.533 0 0 0 8.144 1.81c-3.874 0-4.685 3.69-5.121 5.666a10.217 10.217 0 0 1-2.934 5.281.3.3 0 0 0-.066.328z" transform="translate(1.227 1.364)" style="fill:#ff9100"/>
    </g>
</svg>
